<mxfile host="app.diagrams.net" modified="2023-08-29T18:00:19.867Z" agent="Mozilla/5.0 (Macintosh; Intel Mac OS X 10_15_7) AppleWebKit/605.1.15 (KHTML, like Gecko) Version/16.5.1 Safari/605.1.15" etag="o6jj02jdDnwSjJNkLsnR" version="21.7.0">
  <diagram name="PÃ¡gina-1" id="6MmNOzJQk4TqFuh0Na8F">
    <mxGraphModel dx="954" dy="647" grid="1" gridSize="10" guides="1" tooltips="1" connect="1" arrows="1" fold="1" page="1" pageScale="1" pageWidth="827" pageHeight="1169" math="0" shadow="0">
      <root>
        <mxCell id="0" />
        <mxCell id="1" parent="0" />
        <mxCell id="7vf2ibHkFkf0GfdgbW3s-1" value="&amp;lt;&amp;lt;abstract&amp;gt;&amp;gt;&lt;br&gt;Utente" style="swimlane;fontStyle=1;align=center;verticalAlign=top;childLayout=stackLayout;horizontal=1;startSize=40;horizontalStack=0;resizeParent=1;resizeParentMax=0;resizeLast=0;collapsible=1;marginBottom=0;whiteSpace=wrap;html=1;" vertex="1" parent="1">
          <mxGeometry x="590" y="10" width="160" height="48" as="geometry" />
        </mxCell>
        <mxCell id="7vf2ibHkFkf0GfdgbW3s-3" value="" style="line;strokeWidth=1;fillColor=none;align=left;verticalAlign=middle;spacingTop=-1;spacingLeft=3;spacingRight=3;rotatable=0;labelPosition=right;points=[];portConstraint=eastwest;strokeColor=inherit;" vertex="1" parent="7vf2ibHkFkf0GfdgbW3s-1">
          <mxGeometry y="40" width="160" height="8" as="geometry" />
        </mxCell>
        <mxCell id="7vf2ibHkFkf0GfdgbW3s-5" value="&amp;lt;&amp;lt;stage&amp;gt;&amp;gt;&lt;br&gt;UtenteNonRegistrato" style="swimlane;fontStyle=1;align=center;verticalAlign=top;childLayout=stackLayout;horizontal=1;startSize=40;horizontalStack=0;resizeParent=1;resizeParentMax=0;resizeLast=0;collapsible=1;marginBottom=0;whiteSpace=wrap;html=1;" vertex="1" parent="1">
          <mxGeometry x="40" y="250" width="160" height="74" as="geometry" />
        </mxCell>
        <mxCell id="7vf2ibHkFkf0GfdgbW3s-7" value="" style="line;strokeWidth=1;fillColor=none;align=left;verticalAlign=middle;spacingTop=-1;spacingLeft=3;spacingRight=3;rotatable=0;labelPosition=right;points=[];portConstraint=eastwest;strokeColor=inherit;" vertex="1" parent="7vf2ibHkFkf0GfdgbW3s-5">
          <mxGeometry y="40" width="160" height="8" as="geometry" />
        </mxCell>
        <mxCell id="7vf2ibHkFkf0GfdgbW3s-8" value="+ registrati() : void" style="text;strokeColor=none;fillColor=none;align=left;verticalAlign=top;spacingLeft=4;spacingRight=4;overflow=hidden;rotatable=0;points=[[0,0.5],[1,0.5]];portConstraint=eastwest;whiteSpace=wrap;html=1;" vertex="1" parent="7vf2ibHkFkf0GfdgbW3s-5">
          <mxGeometry y="48" width="160" height="26" as="geometry" />
        </mxCell>
        <mxCell id="7vf2ibHkFkf0GfdgbW3s-9" value="&amp;lt;&amp;lt;stage&amp;gt;&amp;gt;&lt;br&gt;UtenteRegistrato" style="swimlane;fontStyle=1;align=center;verticalAlign=top;childLayout=stackLayout;horizontal=1;startSize=40;horizontalStack=0;resizeParent=1;resizeParentMax=0;resizeLast=0;collapsible=1;marginBottom=0;whiteSpace=wrap;html=1;" vertex="1" parent="1">
          <mxGeometry x="170" y="350" width="160" height="90" as="geometry" />
        </mxCell>
        <mxCell id="7vf2ibHkFkf0GfdgbW3s-11" value="" style="line;strokeWidth=1;fillColor=none;align=left;verticalAlign=middle;spacingTop=-1;spacingLeft=3;spacingRight=3;rotatable=0;labelPosition=right;points=[];portConstraint=eastwest;strokeColor=inherit;" vertex="1" parent="7vf2ibHkFkf0GfdgbW3s-9">
          <mxGeometry y="40" width="160" height="8" as="geometry" />
        </mxCell>
        <mxCell id="7vf2ibHkFkf0GfdgbW3s-12" value="+ login() : void&lt;br&gt;+ ripristinaPassword() : void" style="text;strokeColor=none;fillColor=none;align=left;verticalAlign=top;spacingLeft=4;spacingRight=4;overflow=hidden;rotatable=0;points=[[0,0.5],[1,0.5]];portConstraint=eastwest;whiteSpace=wrap;html=1;" vertex="1" parent="7vf2ibHkFkf0GfdgbW3s-9">
          <mxGeometry y="48" width="160" height="42" as="geometry" />
        </mxCell>
        <mxCell id="7vf2ibHkFkf0GfdgbW3s-13" value="&amp;lt;&amp;lt;stage&amp;gt;&amp;gt;&lt;br&gt;UtenteSaldoAttivo" style="swimlane;fontStyle=1;align=center;verticalAlign=top;childLayout=stackLayout;horizontal=1;startSize=40;horizontalStack=0;resizeParent=1;resizeParentMax=0;resizeLast=0;collapsible=1;marginBottom=0;whiteSpace=wrap;html=1;" vertex="1" parent="1">
          <mxGeometry x="720" y="500" width="160" height="180" as="geometry" />
        </mxCell>
        <mxCell id="7vf2ibHkFkf0GfdgbW3s-14" value="- contoCorrente: Array" style="text;strokeColor=none;fillColor=none;align=left;verticalAlign=top;spacingLeft=4;spacingRight=4;overflow=hidden;rotatable=0;points=[[0,0.5],[1,0.5]];portConstraint=eastwest;whiteSpace=wrap;html=1;" vertex="1" parent="7vf2ibHkFkf0GfdgbW3s-13">
          <mxGeometry y="40" width="160" height="26" as="geometry" />
        </mxCell>
        <mxCell id="7vf2ibHkFkf0GfdgbW3s-15" value="" style="line;strokeWidth=1;fillColor=none;align=left;verticalAlign=middle;spacingTop=-1;spacingLeft=3;spacingRight=3;rotatable=0;labelPosition=right;points=[];portConstraint=eastwest;strokeColor=inherit;" vertex="1" parent="7vf2ibHkFkf0GfdgbW3s-13">
          <mxGeometry y="66" width="160" height="8" as="geometry" />
        </mxCell>
        <mxCell id="7vf2ibHkFkf0GfdgbW3s-16" value="+ bonifico(): void&lt;br&gt;+ ricaricaTelefonica(): void&lt;br&gt;+ infoAccount(): void&amp;nbsp;&lt;br&gt;+ movimenti(): void&lt;br&gt;+ prestito(): void&lt;br&gt;+ chiSiamo(): void&lt;br&gt;+ logout(): void" style="text;strokeColor=none;fillColor=none;align=left;verticalAlign=top;spacingLeft=4;spacingRight=4;overflow=hidden;rotatable=0;points=[[0,0.5],[1,0.5]];portConstraint=eastwest;whiteSpace=wrap;html=1;" vertex="1" parent="7vf2ibHkFkf0GfdgbW3s-13">
          <mxGeometry y="74" width="160" height="106" as="geometry" />
        </mxCell>
        <mxCell id="7vf2ibHkFkf0GfdgbW3s-17" value="&amp;lt;&amp;lt;stage&amp;gt;&amp;gt;&lt;br&gt;UtenteNuovo" style="swimlane;fontStyle=1;align=center;verticalAlign=top;childLayout=stackLayout;horizontal=1;startSize=40;horizontalStack=0;resizeParent=1;resizeParentMax=0;resizeLast=0;collapsible=1;marginBottom=0;whiteSpace=wrap;html=1;" vertex="1" parent="1">
          <mxGeometry x="560" y="360" width="160" height="100" as="geometry" />
        </mxCell>
        <mxCell id="7vf2ibHkFkf0GfdgbW3s-19" value="" style="line;strokeWidth=1;fillColor=none;align=left;verticalAlign=middle;spacingTop=-1;spacingLeft=3;spacingRight=3;rotatable=0;labelPosition=right;points=[];portConstraint=eastwest;strokeColor=inherit;" vertex="1" parent="7vf2ibHkFkf0GfdgbW3s-17">
          <mxGeometry y="40" width="160" height="8" as="geometry" />
        </mxCell>
        <mxCell id="7vf2ibHkFkf0GfdgbW3s-20" value="+ infoAccount(): void&lt;br&gt;+ chiSiamo() : void&lt;br&gt;+ logout(): void" style="text;strokeColor=none;fillColor=none;align=left;verticalAlign=top;spacingLeft=4;spacingRight=4;overflow=hidden;rotatable=0;points=[[0,0.5],[1,0.5]];portConstraint=eastwest;whiteSpace=wrap;html=1;" vertex="1" parent="7vf2ibHkFkf0GfdgbW3s-17">
          <mxGeometry y="48" width="160" height="52" as="geometry" />
        </mxCell>
        <mxCell id="7vf2ibHkFkf0GfdgbW3s-21" value="&amp;lt;&amp;lt;stage&amp;gt;&amp;gt;&lt;br&gt;UtenteNonAutenticato" style="swimlane;fontStyle=1;align=center;verticalAlign=top;childLayout=stackLayout;horizontal=1;startSize=40;horizontalStack=0;resizeParent=1;resizeParentMax=0;resizeLast=0;collapsible=1;marginBottom=0;whiteSpace=wrap;html=1;" vertex="1" parent="1">
          <mxGeometry x="350" y="350" width="160" height="90" as="geometry" />
        </mxCell>
        <mxCell id="7vf2ibHkFkf0GfdgbW3s-23" value="" style="line;strokeWidth=1;fillColor=none;align=left;verticalAlign=middle;spacingTop=-1;spacingLeft=3;spacingRight=3;rotatable=0;labelPosition=right;points=[];portConstraint=eastwest;strokeColor=inherit;" vertex="1" parent="7vf2ibHkFkf0GfdgbW3s-21">
          <mxGeometry y="40" width="160" height="8" as="geometry" />
        </mxCell>
        <mxCell id="7vf2ibHkFkf0GfdgbW3s-24" value="+ login() : void&lt;br&gt;+ ripristinaPassword() : void" style="text;strokeColor=none;fillColor=none;align=left;verticalAlign=top;spacingLeft=4;spacingRight=4;overflow=hidden;rotatable=0;points=[[0,0.5],[1,0.5]];portConstraint=eastwest;whiteSpace=wrap;html=1;" vertex="1" parent="7vf2ibHkFkf0GfdgbW3s-21">
          <mxGeometry y="48" width="160" height="42" as="geometry" />
        </mxCell>
        <mxCell id="7vf2ibHkFkf0GfdgbW3s-25" value="Extends" style="endArrow=block;endSize=16;endFill=0;html=1;rounded=0;exitX=0.5;exitY=0;exitDx=0;exitDy=0;entryX=0.25;entryY=1;entryDx=0;entryDy=0;" edge="1" parent="1" source="7vf2ibHkFkf0GfdgbW3s-9" target="7vf2ibHkFkf0GfdgbW3s-1">
          <mxGeometry width="160" relative="1" as="geometry">
            <mxPoint x="330" y="340" as="sourcePoint" />
            <mxPoint x="300" y="170" as="targetPoint" />
          </mxGeometry>
        </mxCell>
        <mxCell id="7vf2ibHkFkf0GfdgbW3s-27" value="Extends" style="endArrow=block;endSize=16;endFill=0;html=1;rounded=0;exitX=0.5;exitY=0;exitDx=0;exitDy=0;" edge="1" parent="1" source="7vf2ibHkFkf0GfdgbW3s-5">
          <mxGeometry width="160" relative="1" as="geometry">
            <mxPoint x="120" y="210" as="sourcePoint" />
            <mxPoint x="610" y="60" as="targetPoint" />
            <Array as="points" />
          </mxGeometry>
        </mxCell>
        <mxCell id="7vf2ibHkFkf0GfdgbW3s-29" value="Extends" style="endArrow=block;endSize=16;endFill=0;html=1;rounded=0;exitX=0.5;exitY=0;exitDx=0;exitDy=0;entryX=0.5;entryY=1;entryDx=0;entryDy=0;" edge="1" parent="1" source="7vf2ibHkFkf0GfdgbW3s-21" target="7vf2ibHkFkf0GfdgbW3s-1">
          <mxGeometry width="160" relative="1" as="geometry">
            <mxPoint x="330" y="340" as="sourcePoint" />
            <mxPoint x="490" y="340" as="targetPoint" />
          </mxGeometry>
        </mxCell>
        <mxCell id="7vf2ibHkFkf0GfdgbW3s-34" value="&amp;lt;&amp;lt;stage&amp;gt;&amp;gt;&lt;br&gt;UtenteSaldoPassivo" style="swimlane;fontStyle=1;align=center;verticalAlign=top;childLayout=stackLayout;horizontal=1;startSize=40;horizontalStack=0;resizeParent=1;resizeParentMax=0;resizeLast=0;collapsible=1;marginBottom=0;whiteSpace=wrap;html=1;" vertex="1" parent="1">
          <mxGeometry x="950" y="510" width="160" height="160" as="geometry" />
        </mxCell>
        <mxCell id="7vf2ibHkFkf0GfdgbW3s-35" value="- contoCorrente: Array" style="text;strokeColor=none;fillColor=none;align=left;verticalAlign=top;spacingLeft=4;spacingRight=4;overflow=hidden;rotatable=0;points=[[0,0.5],[1,0.5]];portConstraint=eastwest;whiteSpace=wrap;html=1;" vertex="1" parent="7vf2ibHkFkf0GfdgbW3s-34">
          <mxGeometry y="40" width="160" height="26" as="geometry" />
        </mxCell>
        <mxCell id="7vf2ibHkFkf0GfdgbW3s-36" value="" style="line;strokeWidth=1;fillColor=none;align=left;verticalAlign=middle;spacingTop=-1;spacingLeft=3;spacingRight=3;rotatable=0;labelPosition=right;points=[];portConstraint=eastwest;strokeColor=inherit;" vertex="1" parent="7vf2ibHkFkf0GfdgbW3s-34">
          <mxGeometry y="66" width="160" height="8" as="geometry" />
        </mxCell>
        <mxCell id="7vf2ibHkFkf0GfdgbW3s-37" value="+ infoAccount(): void&amp;nbsp;&lt;br&gt;+ movimenti(): void&lt;br&gt;+ prestito(): void&lt;br&gt;+ chiSiamo(): void&lt;br&gt;+ logout(): void" style="text;strokeColor=none;fillColor=none;align=left;verticalAlign=top;spacingLeft=4;spacingRight=4;overflow=hidden;rotatable=0;points=[[0,0.5],[1,0.5]];portConstraint=eastwest;whiteSpace=wrap;html=1;" vertex="1" parent="7vf2ibHkFkf0GfdgbW3s-34">
          <mxGeometry y="74" width="160" height="86" as="geometry" />
        </mxCell>
        <mxCell id="7vf2ibHkFkf0GfdgbW3s-38" value="&amp;lt;&amp;lt;stage&amp;gt;&amp;gt;&lt;br&gt;AdminAutenticato" style="swimlane;fontStyle=1;align=center;verticalAlign=top;childLayout=stackLayout;horizontal=1;startSize=40;horizontalStack=0;resizeParent=1;resizeParentMax=0;resizeLast=0;collapsible=1;marginBottom=0;whiteSpace=wrap;html=1;" vertex="1" parent="1">
          <mxGeometry x="1130" y="300" width="280" height="170" as="geometry" />
        </mxCell>
        <mxCell id="7vf2ibHkFkf0GfdgbW3s-39" value="- listaUtenti: Array" style="text;strokeColor=none;fillColor=none;align=left;verticalAlign=top;spacingLeft=4;spacingRight=4;overflow=hidden;rotatable=0;points=[[0,0.5],[1,0.5]];portConstraint=eastwest;whiteSpace=wrap;html=1;" vertex="1" parent="7vf2ibHkFkf0GfdgbW3s-38">
          <mxGeometry y="40" width="280" height="26" as="geometry" />
        </mxCell>
        <mxCell id="7vf2ibHkFkf0GfdgbW3s-40" value="" style="line;strokeWidth=1;fillColor=none;align=left;verticalAlign=middle;spacingTop=-1;spacingLeft=3;spacingRight=3;rotatable=0;labelPosition=right;points=[];portConstraint=eastwest;strokeColor=inherit;" vertex="1" parent="7vf2ibHkFkf0GfdgbW3s-38">
          <mxGeometry y="66" width="280" height="8" as="geometry" />
        </mxCell>
        <mxCell id="7vf2ibHkFkf0GfdgbW3s-41" value="+ getListaUtenti(): Array&lt;br&gt;+ creaContoCorrente(idUtente): void&lt;br&gt;+ cancellaContoCorrente(idContoCorrente) : void&lt;br&gt;+ cancellaAccountUtente(idUtente) : void&lt;br&gt;+ infoAccount(): void&lt;br&gt;+ logout(): void" style="text;strokeColor=none;fillColor=none;align=left;verticalAlign=top;spacingLeft=4;spacingRight=4;overflow=hidden;rotatable=0;points=[[0,0.5],[1,0.5]];portConstraint=eastwest;whiteSpace=wrap;html=1;" vertex="1" parent="7vf2ibHkFkf0GfdgbW3s-38">
          <mxGeometry y="74" width="280" height="96" as="geometry" />
        </mxCell>
        <mxCell id="7vf2ibHkFkf0GfdgbW3s-42" value="Extends" style="endArrow=block;endSize=16;endFill=0;html=1;rounded=0;exitX=0.463;exitY=-0.04;exitDx=0;exitDy=0;exitPerimeter=0;entryX=0.494;entryY=1;entryDx=0;entryDy=0;entryPerimeter=0;" edge="1" parent="1" source="7vf2ibHkFkf0GfdgbW3s-17" target="7vf2ibHkFkf0GfdgbW3s-3">
          <mxGeometry width="160" relative="1" as="geometry">
            <mxPoint x="660" y="390" as="sourcePoint" />
            <mxPoint x="710" y="150" as="targetPoint" />
          </mxGeometry>
        </mxCell>
        <mxCell id="7vf2ibHkFkf0GfdgbW3s-43" value="Extends" style="endArrow=block;endSize=16;endFill=0;html=1;rounded=0;exitX=0.5;exitY=0;exitDx=0;exitDy=0;entryX=0.75;entryY=1;entryDx=0;entryDy=0;" edge="1" parent="1" source="7vf2ibHkFkf0GfdgbW3s-13" target="7vf2ibHkFkf0GfdgbW3s-1">
          <mxGeometry width="160" relative="1" as="geometry">
            <mxPoint x="660" y="390" as="sourcePoint" />
            <mxPoint x="820" y="390" as="targetPoint" />
          </mxGeometry>
        </mxCell>
        <mxCell id="7vf2ibHkFkf0GfdgbW3s-44" value="Extends" style="endArrow=block;endSize=16;endFill=0;html=1;rounded=0;exitX=0.5;exitY=0;exitDx=0;exitDy=0;entryX=0.919;entryY=0.571;entryDx=0;entryDy=0;entryPerimeter=0;" edge="1" parent="1" source="7vf2ibHkFkf0GfdgbW3s-34" target="7vf2ibHkFkf0GfdgbW3s-3">
          <mxGeometry width="160" relative="1" as="geometry">
            <mxPoint x="660" y="390" as="sourcePoint" />
            <mxPoint x="730" y="70" as="targetPoint" />
          </mxGeometry>
        </mxCell>
        <mxCell id="7vf2ibHkFkf0GfdgbW3s-45" value="Extends" style="endArrow=block;endSize=16;endFill=0;html=1;rounded=0;exitX=0.329;exitY=0;exitDx=0;exitDy=0;exitPerimeter=0;entryX=1;entryY=1;entryDx=0;entryDy=0;" edge="1" parent="1" source="7vf2ibHkFkf0GfdgbW3s-38" target="7vf2ibHkFkf0GfdgbW3s-1">
          <mxGeometry width="160" relative="1" as="geometry">
            <mxPoint x="660" y="390" as="sourcePoint" />
            <mxPoint x="820" y="390" as="targetPoint" />
          </mxGeometry>
        </mxCell>
        <mxCell id="7vf2ibHkFkf0GfdgbW3s-46" value="" style="endArrow=classic;html=1;rounded=0;exitX=1;exitY=0.5;exitDx=0;exitDy=0;entryX=0.017;entryY=-0.099;entryDx=0;entryDy=0;entryPerimeter=0;" edge="1" parent="1" source="7vf2ibHkFkf0GfdgbW3s-14" target="7vf2ibHkFkf0GfdgbW3s-35">
          <mxGeometry width="50" height="50" relative="1" as="geometry">
            <mxPoint x="670" y="430" as="sourcePoint" />
            <mxPoint x="720" y="380" as="targetPoint" />
          </mxGeometry>
        </mxCell>
        <mxCell id="7vf2ibHkFkf0GfdgbW3s-47" value="" style="endArrow=classic;html=1;rounded=0;exitX=0;exitY=0.5;exitDx=0;exitDy=0;entryX=1;entryY=0.5;entryDx=0;entryDy=0;" edge="1" parent="1" source="7vf2ibHkFkf0GfdgbW3s-37" target="7vf2ibHkFkf0GfdgbW3s-16">
          <mxGeometry width="50" height="50" relative="1" as="geometry">
            <mxPoint x="670" y="430" as="sourcePoint" />
            <mxPoint x="720" y="380" as="targetPoint" />
          </mxGeometry>
        </mxCell>
        <mxCell id="7vf2ibHkFkf0GfdgbW3s-49" value="" style="endArrow=classic;html=1;rounded=0;entryX=0.231;entryY=1.005;entryDx=0;entryDy=0;entryPerimeter=0;" edge="1" parent="1" target="7vf2ibHkFkf0GfdgbW3s-20">
          <mxGeometry width="50" height="50" relative="1" as="geometry">
            <mxPoint x="470" y="440" as="sourcePoint" />
            <mxPoint x="570" y="460" as="targetPoint" />
            <Array as="points">
              <mxPoint x="470" y="560" />
              <mxPoint x="600" y="560" />
            </Array>
          </mxGeometry>
        </mxCell>
        <mxCell id="7vf2ibHkFkf0GfdgbW3s-50" value="" style="endArrow=classic;html=1;rounded=0;entryX=-0.01;entryY=0.1;entryDx=0;entryDy=0;entryPerimeter=0;exitX=0.588;exitY=0.973;exitDx=0;exitDy=0;exitPerimeter=0;" edge="1" parent="1" source="7vf2ibHkFkf0GfdgbW3s-24" target="7vf2ibHkFkf0GfdgbW3s-16">
          <mxGeometry width="50" height="50" relative="1" as="geometry">
            <mxPoint x="670" y="510" as="sourcePoint" />
            <mxPoint x="720" y="460" as="targetPoint" />
            <Array as="points">
              <mxPoint x="444" y="580" />
            </Array>
          </mxGeometry>
        </mxCell>
        <mxCell id="7vf2ibHkFkf0GfdgbW3s-51" value="" style="endArrow=classic;html=1;rounded=0;exitX=0.454;exitY=0.973;exitDx=0;exitDy=0;exitPerimeter=0;entryX=0.312;entryY=1.037;entryDx=0;entryDy=0;entryPerimeter=0;" edge="1" parent="1" source="7vf2ibHkFkf0GfdgbW3s-24" target="7vf2ibHkFkf0GfdgbW3s-37">
          <mxGeometry width="50" height="50" relative="1" as="geometry">
            <mxPoint x="670" y="510" as="sourcePoint" />
            <mxPoint x="720" y="460" as="targetPoint" />
            <Array as="points">
              <mxPoint x="423" y="740" />
              <mxPoint x="1000" y="740" />
            </Array>
          </mxGeometry>
        </mxCell>
        <mxCell id="7vf2ibHkFkf0GfdgbW3s-52" value="" style="endArrow=none;html=1;rounded=0;exitX=0.481;exitY=1.007;exitDx=0;exitDy=0;exitPerimeter=0;" edge="1" parent="1" source="7vf2ibHkFkf0GfdgbW3s-12">
          <mxGeometry width="50" height="50" relative="1" as="geometry">
            <mxPoint x="670" y="510" as="sourcePoint" />
            <mxPoint x="430" y="740" as="targetPoint" />
            <Array as="points">
              <mxPoint x="247" y="740" />
            </Array>
          </mxGeometry>
        </mxCell>
        <mxCell id="7vf2ibHkFkf0GfdgbW3s-53" value="" style="endArrow=none;html=1;rounded=0;exitX=0.544;exitY=1.041;exitDx=0;exitDy=0;exitPerimeter=0;" edge="1" parent="1" source="7vf2ibHkFkf0GfdgbW3s-12">
          <mxGeometry width="50" height="50" relative="1" as="geometry">
            <mxPoint x="670" y="510" as="sourcePoint" />
            <mxPoint x="450" y="580" as="targetPoint" />
            <Array as="points">
              <mxPoint x="257" y="580" />
            </Array>
          </mxGeometry>
        </mxCell>
        <mxCell id="7vf2ibHkFkf0GfdgbW3s-54" value="" style="endArrow=none;html=1;rounded=0;exitX=0.624;exitY=1.007;exitDx=0;exitDy=0;exitPerimeter=0;" edge="1" parent="1" source="7vf2ibHkFkf0GfdgbW3s-12">
          <mxGeometry width="50" height="50" relative="1" as="geometry">
            <mxPoint x="670" y="510" as="sourcePoint" />
            <mxPoint x="470" y="560" as="targetPoint" />
            <Array as="points">
              <mxPoint x="270" y="560" />
            </Array>
          </mxGeometry>
        </mxCell>
        <mxCell id="7vf2ibHkFkf0GfdgbW3s-55" value="" style="endArrow=classic;html=1;rounded=0;exitX=0.785;exitY=1.02;exitDx=0;exitDy=0;exitPerimeter=0;entryX=0.338;entryY=0.973;entryDx=0;entryDy=0;entryPerimeter=0;" edge="1" parent="1" source="7vf2ibHkFkf0GfdgbW3s-37" target="7vf2ibHkFkf0GfdgbW3s-12">
          <mxGeometry width="50" height="50" relative="1" as="geometry">
            <mxPoint x="540" y="680" as="sourcePoint" />
            <mxPoint x="187" y="439" as="targetPoint" />
            <Array as="points">
              <mxPoint x="1080" y="800" />
              <mxPoint x="220" y="800" />
            </Array>
          </mxGeometry>
        </mxCell>
        <mxCell id="7vf2ibHkFkf0GfdgbW3s-56" value="" style="endArrow=classic;html=1;rounded=0;entryX=0.375;entryY=1;entryDx=0;entryDy=0;entryPerimeter=0;" edge="1" parent="1" target="7vf2ibHkFkf0GfdgbW3s-24">
          <mxGeometry width="50" height="50" relative="1" as="geometry">
            <mxPoint x="410" y="800" as="sourcePoint" />
            <mxPoint x="590" y="630" as="targetPoint" />
          </mxGeometry>
        </mxCell>
        <mxCell id="7vf2ibHkFkf0GfdgbW3s-57" value="" style="endArrow=classic;html=1;rounded=0;entryX=0;entryY=0.25;entryDx=0;entryDy=0;" edge="1" parent="1" source="7vf2ibHkFkf0GfdgbW3s-8" target="7vf2ibHkFkf0GfdgbW3s-9">
          <mxGeometry width="50" height="50" relative="1" as="geometry">
            <mxPoint x="540" y="680" as="sourcePoint" />
            <mxPoint x="590" y="630" as="targetPoint" />
            <Array as="points">
              <mxPoint x="120" y="373" />
            </Array>
          </mxGeometry>
        </mxCell>
        <mxCell id="7vf2ibHkFkf0GfdgbW3s-58" value="" style="endArrow=classic;html=1;rounded=0;exitX=0.874;exitY=1.007;exitDx=0;exitDy=0;exitPerimeter=0;entryX=0.255;entryY=0.988;entryDx=0;entryDy=0;entryPerimeter=0;" edge="1" parent="1" source="7vf2ibHkFkf0GfdgbW3s-24" target="7vf2ibHkFkf0GfdgbW3s-41">
          <mxGeometry width="50" height="50" relative="1" as="geometry">
            <mxPoint x="540" y="710" as="sourcePoint" />
            <mxPoint x="1240" y="840" as="targetPoint" />
            <Array as="points">
              <mxPoint x="490" y="840" />
              <mxPoint x="1200" y="840" />
            </Array>
          </mxGeometry>
        </mxCell>
        <mxCell id="7vf2ibHkFkf0GfdgbW3s-59" value="" style="endArrow=none;html=1;rounded=0;entryX=0.829;entryY=1.007;entryDx=0;entryDy=0;entryPerimeter=0;" edge="1" parent="1" target="7vf2ibHkFkf0GfdgbW3s-12">
          <mxGeometry width="50" height="50" relative="1" as="geometry">
            <mxPoint x="490" y="840" as="sourcePoint" />
            <mxPoint x="830" y="540" as="targetPoint" />
            <Array as="points">
              <mxPoint x="303" y="840" />
            </Array>
          </mxGeometry>
        </mxCell>
        <mxCell id="7vf2ibHkFkf0GfdgbW3s-61" value="" style="endArrow=classic;html=1;rounded=0;entryX=0.071;entryY=0.973;entryDx=0;entryDy=0;entryPerimeter=0;exitX=0.683;exitY=1.033;exitDx=0;exitDy=0;exitPerimeter=0;" edge="1" parent="1" source="7vf2ibHkFkf0GfdgbW3s-41" target="7vf2ibHkFkf0GfdgbW3s-24">
          <mxGeometry width="50" height="50" relative="1" as="geometry">
            <mxPoint x="360" y="920" as="sourcePoint" />
            <mxPoint x="690" y="540" as="targetPoint" />
            <Array as="points">
              <mxPoint x="1320" y="930" />
              <mxPoint x="361" y="930" />
            </Array>
          </mxGeometry>
        </mxCell>
        <mxCell id="7vf2ibHkFkf0GfdgbW3s-62" value="&amp;lt;&amp;lt;stage&amp;gt;&amp;gt;&lt;br&gt;UtenteRipristinaCredenziali" style="swimlane;fontStyle=1;align=center;verticalAlign=top;childLayout=stackLayout;horizontal=1;startSize=40;horizontalStack=0;resizeParent=1;resizeParentMax=0;resizeLast=0;collapsible=1;marginBottom=0;whiteSpace=wrap;html=1;" vertex="1" parent="1">
          <mxGeometry x="40" y="494" width="160" height="80" as="geometry" />
        </mxCell>
        <mxCell id="7vf2ibHkFkf0GfdgbW3s-63" value="" style="line;strokeWidth=1;fillColor=none;align=left;verticalAlign=middle;spacingTop=-1;spacingLeft=3;spacingRight=3;rotatable=0;labelPosition=right;points=[];portConstraint=eastwest;strokeColor=inherit;" vertex="1" parent="7vf2ibHkFkf0GfdgbW3s-62">
          <mxGeometry y="40" width="160" height="8" as="geometry" />
        </mxCell>
        <mxCell id="7vf2ibHkFkf0GfdgbW3s-64" value="+ ripristinaPassword() : void" style="text;strokeColor=none;fillColor=none;align=left;verticalAlign=top;spacingLeft=4;spacingRight=4;overflow=hidden;rotatable=0;points=[[0,0.5],[1,0.5]];portConstraint=eastwest;whiteSpace=wrap;html=1;" vertex="1" parent="7vf2ibHkFkf0GfdgbW3s-62">
          <mxGeometry y="48" width="160" height="32" as="geometry" />
        </mxCell>
        <mxCell id="7vf2ibHkFkf0GfdgbW3s-65" value="" style="endArrow=classic;html=1;rounded=0;exitX=0;exitY=0.5;exitDx=0;exitDy=0;entryX=0.5;entryY=0;entryDx=0;entryDy=0;" edge="1" parent="1" source="7vf2ibHkFkf0GfdgbW3s-12" target="7vf2ibHkFkf0GfdgbW3s-62">
          <mxGeometry width="50" height="50" relative="1" as="geometry">
            <mxPoint x="650" y="540" as="sourcePoint" />
            <mxPoint x="700" y="490" as="targetPoint" />
            <Array as="points">
              <mxPoint x="120" y="419" />
            </Array>
          </mxGeometry>
        </mxCell>
        <mxCell id="7vf2ibHkFkf0GfdgbW3s-66" value="" style="endArrow=classic;html=1;rounded=0;entryX=0.75;entryY=0;entryDx=0;entryDy=0;" edge="1" parent="1" target="7vf2ibHkFkf0GfdgbW3s-62">
          <mxGeometry width="50" height="50" relative="1" as="geometry">
            <mxPoint x="350" y="420" as="sourcePoint" />
            <mxPoint x="700" y="490" as="targetPoint" />
            <Array as="points">
              <mxPoint x="340" y="420" />
              <mxPoint x="340" y="470" />
              <mxPoint x="160" y="470" />
            </Array>
          </mxGeometry>
        </mxCell>
        <mxCell id="7vf2ibHkFkf0GfdgbW3s-67" value="" style="endArrow=classic;html=1;rounded=0;exitX=1.013;exitY=0.446;exitDx=0;exitDy=0;exitPerimeter=0;entryX=0.24;entryY=1.032;entryDx=0;entryDy=0;entryPerimeter=0;" edge="1" parent="1" source="7vf2ibHkFkf0GfdgbW3s-62" target="7vf2ibHkFkf0GfdgbW3s-24">
          <mxGeometry width="50" height="50" relative="1" as="geometry">
            <mxPoint x="230" y="490" as="sourcePoint" />
            <mxPoint x="280" y="440" as="targetPoint" />
            <Array as="points">
              <mxPoint x="388" y="530" />
            </Array>
          </mxGeometry>
        </mxCell>
        <mxCell id="7vf2ibHkFkf0GfdgbW3s-68" value="Extends" style="endArrow=block;endSize=16;endFill=0;html=1;rounded=0;exitX=0.369;exitY=-0.037;exitDx=0;exitDy=0;exitPerimeter=0;" edge="1" parent="1" source="7vf2ibHkFkf0GfdgbW3s-62">
          <mxGeometry width="160" relative="1" as="geometry">
            <mxPoint x="210" y="340" as="sourcePoint" />
            <mxPoint x="600" y="60" as="targetPoint" />
            <Array as="points">
              <mxPoint x="20" y="350" />
              <mxPoint x="30" y="210" />
              <mxPoint x="270" y="140" />
            </Array>
          </mxGeometry>
        </mxCell>
      </root>
    </mxGraphModel>
  </diagram>
</mxfile>
